# Blender 5.1.1
# www.blender.org
mtllib Door Wall.mtl
o Cube.001
v 1.707013 0.008697 -3.982405
v 1.707013 0.008697 3.982405
v 1.707013 2.939106 -4.049428
v 1.707013 2.939106 4.049428
v 1.707013 2.735750 -3.982405
v 1.707013 2.735750 3.982405
v 1.707013 0.008697 3.216597
v 1.707013 0.008697 -3.216559
v 1.707013 2.735750 -3.216559
v 1.707013 2.735750 3.216597
v 1.707013 2.738953 -4.049428
v 1.707013 0.005494 -4.049428
v 1.707013 2.738953 4.049428
v 1.707013 0.005494 4.049428
v 1.707013 0.005494 -3.149536
v 1.707013 2.738953 3.149574
v 1.707013 0.005494 3.149574
v 1.707013 2.738953 -3.149536
v 1.751225 2.738953 -4.049428
v 1.751225 0.005494 -4.049428
v 1.751225 2.738953 4.049428
v 1.751225 0.005494 4.049428
v 1.751225 2.939106 -4.049428
v 1.751225 2.939106 4.049428
v 1.751225 2.738953 3.149574
v 1.751225 2.738953 -3.149536
v 1.751225 0.005494 -3.149536
v 1.751225 0.005494 3.149574
v 1.751225 2.735750 -3.982405
v 1.751225 0.008697 -3.982405
v 1.751225 2.735750 3.982405
v 1.751225 0.008697 3.982405
v 1.751225 2.735750 -3.216559
v 1.751225 0.008697 -3.216559
v 1.751225 2.735750 3.216597
v 1.751225 0.008697 3.216597
v 1.751225 2.839030 4.049428
v 1.751225 2.738953 3.599501
v 1.751225 2.738953 -3.599482
v 1.751225 2.738953 -2.699600
v 1.751225 2.738953 2.699638
v 1.751225 2.812571 -4.049428
v 1.802732 2.939106 4.049428
v 1.802732 2.939106 -4.049428
v 1.802732 2.839030 4.049428
v 1.802732 2.812571 -4.049428
v 1.707013 8.104350 -4.049428
v 1.707013 8.104350 4.049428
v 1.087466 8.104350 -4.049428
v 1.087466 0.005494 -4.049428
v 1.087466 8.104350 4.049428
v 1.087466 0.005494 4.049428
v 1.707013 2.738953 -2.515225
v 1.751225 2.738953 -2.515225
v 1.751225 2.834018 2.515327
v 1.751225 2.817583 -2.515310
v 1.802732 2.834018 2.515327
v 1.802732 2.817583 -2.515310
v 1.707013 2.738953 2.515225
v 1.751225 2.738953 2.515225
v 1.802732 2.939106 2.515441
v 1.802732 2.939106 -2.515441
v 1.707013 2.939106 2.515441
v 1.707013 2.939106 -2.515441
v 1.707013 0.005494 -2.512279
v 1.707013 0.005494 2.512279
v 1.707013 5.813604 2.518539
v 1.707013 6.005350 2.372411
v 1.707013 6.182063 2.135114
v 1.707013 6.336954 1.815765
v 1.707013 6.464069 1.426638
v 1.707013 6.464069 -1.426638
v 1.707013 6.558525 -0.982685
v 1.707013 6.616690 -0.500969
v 1.707013 6.636330 0.000000
v 1.707013 6.616690 0.500969
v 1.707013 6.558525 0.982685
v 1.707013 6.336954 -1.815765
v 1.707013 6.005350 -2.372411
v 1.707013 5.813604 -2.518539
v 1.707013 6.182063 -2.135114
v 1.087466 0.005494 2.512279
v 1.087466 0.005494 -2.512279
v 1.087466 6.182063 -2.135114
v 1.087466 5.813604 -2.518539
v 1.087466 6.005350 -2.372411
v 1.087466 5.813604 2.518539
v 1.087466 6.005350 2.372411
v 1.087466 6.182063 2.135114
v 1.087466 6.464069 1.426638
v 1.087466 6.336954 1.815765
v 1.087466 6.558525 0.982685
v 1.087466 6.464069 -1.426638
v 1.087466 6.336954 -1.815765
v 1.087466 6.558525 -0.982685
v 1.087466 6.616690 -0.500969
v 1.087466 6.636330 0.000000
v 1.087466 6.616690 0.500969
v 1.104591 0.000000 -2.512273
v 1.854929 -0.000000 -2.512273
v 1.104591 0.000000 2.512273
v 1.854929 -0.000000 2.512273
v 1.101851 5.813604 2.518539
v 1.857670 5.813604 2.518539
v 1.101851 6.005350 2.372411
v 1.857670 6.005350 2.372411
v 1.101851 6.182063 2.135114
v 1.857670 6.182063 2.135114
v 1.101851 6.336954 1.815765
v 1.857670 6.336954 1.815765
v 1.101851 6.464069 1.426638
v 1.857670 6.464069 1.426638
v 1.101851 6.558525 0.982685
v 1.857670 6.558525 0.982685
v 1.101851 6.616690 0.500969
v 1.857670 6.616691 0.500969
v 1.101851 6.636330 0.000000
v 1.857670 6.636331 0.000000
v 1.101851 6.616690 -0.500969
v 1.857670 6.616691 -0.500969
v 1.101851 6.558525 -0.982685
v 1.857670 6.558525 -0.982685
v 1.101851 6.464069 -1.426638
v 1.857670 6.464069 -1.426638
v 1.101851 6.336954 -1.815765
v 1.857670 6.336954 -1.815765
v 1.101851 6.182063 -2.135114
v 1.857670 6.182063 -2.135114
v 1.101851 6.005350 -2.372411
v 1.857670 6.005350 -2.372411
v 1.101851 5.813604 -2.518539
v 1.857670 5.813604 -2.518539
v 1.104591 0.000000 2.342474
v 1.104591 0.000000 -2.342474
v 1.101924 5.705861 -2.347970
v 1.101936 6.049366 1.990513
v 1.101997 5.705861 2.347970
v 1.101951 5.884620 2.211740
v 1.101908 6.049366 -1.990513
v 1.101918 5.884620 -2.211740
v 1.101889 6.400331 0.916133
v 1.101897 6.454558 0.467040
v 1.101923 6.193767 1.692792
v 1.101897 6.312273 1.330018
v 1.101915 6.472867 0.000000
v 1.101884 6.400331 -0.916133
v 1.101892 6.454558 -0.467040
v 1.101892 6.312273 -1.330018
v 1.101915 6.193767 -1.692792
v 1.854929 -0.000000 2.342474
v 1.854929 -0.000000 -2.342474
v 1.857597 5.705861 2.347970
v 1.857585 6.049366 -1.990513
v 1.857524 5.705861 -2.347970
v 1.857570 5.884620 -2.211740
v 1.857613 6.049366 1.990513
v 1.857603 5.884620 2.211740
v 1.857632 6.400331 -0.916133
v 1.857624 6.454558 -0.467040
v 1.857624 6.312273 -1.330018
v 1.857598 6.193767 -1.692792
v 1.857606 6.472867 0.000000
v 1.857637 6.400331 0.916133
v 1.857629 6.454558 0.467040
v 1.857606 6.193767 1.692792
v 1.857629 6.312273 1.330018
vn -0.0000 -0.0000 -1.0000
vn -0.0000 -0.9989 -0.0477
vn -0.0000 -1.0000 -0.0000
vn -0.0000 -0.9989 0.0477
vn -0.0000 -1.0000 0.0033
vn 1.0000 -0.0000 -0.0000
vn -0.0000 -0.0000 1.0000
vn -0.0000 1.0000 -0.0000
vn -1.0000 -0.0000 -0.0000
vn -0.0000 0.0011 -1.0000
vn -0.0000 -0.6061 -0.7954
vn -0.0000 -0.8020 -0.5973
vn -0.0000 -0.8998 -0.4364
vn -0.0000 -0.9506 -0.3105
vn -0.0000 -0.9781 -0.2081
vn -0.0000 -0.9928 -0.1199
vn -0.0000 -0.9992 -0.0392
vn -0.0000 -0.9992 0.0392
vn -0.0000 -0.9928 0.1199
vn -0.0000 -0.9781 0.2081
vn -0.0000 -0.9506 0.3105
vn -0.0000 -0.8998 0.4364
vn -0.0000 -0.8020 0.5973
vn -0.0000 -0.6061 0.7954
vn -0.0000 0.0011 1.0000
vn -0.0000 -0.0011 1.0000
vn -0.0000 0.6061 0.7954
vn -0.0000 0.8020 0.5973
vn -0.0000 0.8998 0.4364
vn -0.0000 0.9506 0.3105
vn -0.0000 0.9781 0.2081
vn -0.0000 0.9928 0.1199
vn -0.0000 0.9992 0.0392
vn -0.0000 0.9992 -0.0392
vn -0.0000 0.9928 -0.1199
vn -0.0000 0.9781 -0.2081
vn -0.0000 0.9506 -0.3105
vn -0.0000 0.8998 -0.4364
vn -0.0000 0.8020 -0.5973
vn -1.0000 -0.0004 -0.0001
vn -0.0000 0.6061 -0.7954
vn -0.0000 -0.0011 -1.0000
vn 1.0000 -0.0004 0.0001
vn -0.0000 0.0010 -1.0000
vn -0.0000 0.0010 1.0000
vt 0.494608 0.500000
vt 0.491472 0.500000
vt 0.500000 0.500000
vt 0.375000 0.527778
vt 0.377856 0.525709
vt 0.491472 0.750000
vt 0.491472 0.722223
vt 0.491472 0.736111
vt 0.491472 0.547359
vt 0.491472 0.527778
vt 0.491472 0.541667
vt 0.491472 0.513889
vt 0.375000 0.750000
vt 0.377856 0.747931
vt 0.377856 0.502069
vt 0.375000 0.500000
vt 0.494822 0.547356
vt 0.494822 0.547356
vt 0.495736 0.750000
vt 0.495522 0.702645
vt 0.488616 0.502069
vt 0.488616 0.747931
vt 0.488616 0.525709
vt 0.488616 0.724292
vt 0.377856 0.724292
vt 0.375000 0.722223
vt 0.491472 0.708334
vt 0.491472 0.702641
vt 0.500000 0.547352
vt 0.500000 0.702648
vt 0.500000 0.750000
vt 0.500000 0.702648
vt 0.375000 0.547450
vt 0.375000 0.702550
vt 0.625000 0.250000
vt 0.625000 0.500000
vt 0.375000 0.250000
vt 0.569564 0.547256
vt 0.625000 0.750000
vt 0.569563 0.702744
vt 0.574204 0.698233
vt 0.578480 0.690908
vt 0.582229 0.681050
vt 0.585305 0.669038
vt 0.587591 0.655334
vt 0.588998 0.640464
vt 0.589474 0.625000
vt 0.588998 0.609536
vt 0.587591 0.594666
vt 0.585305 0.580962
vt 0.582229 0.568950
vt 0.578480 0.559092
vt 0.574204 0.551767
vt 0.125000 0.750000
vt 0.125000 0.702550
vt 0.125000 0.547450
vt 0.125000 0.500000
vt 0.875000 0.500000
vt 0.875000 0.750000
vt 0.375000 0.047450
vt 0.375000 0.000000
vt 0.625000 0.000000
vt 0.375000 0.202550
vt 0.554288 0.202744
vt 0.560207 0.198233
vt 0.565662 0.190908
vt 0.570443 0.181050
vt 0.574367 0.169038
vt 0.577283 0.155334
vt 0.579078 0.140464
vt 0.579684 0.125000
vt 0.579078 0.109536
vt 0.577283 0.094666
vt 0.574367 0.080962
vt 0.570443 0.068950
vt 0.565662 0.059092
vt 0.560207 0.051767
vt 0.554288 0.047256
vt 0.485277 0.748415
vt 0.485277 0.746374
vt 0.499970 0.746337
vt 0.499970 0.717447
vt 0.468750 0.718151
vt 0.468750 0.746416
vt 0.484201 0.746377
vt 0.484201 0.750792
vt 0.484766 0.750792
vt 0.484766 0.748415
vt 0.437500 0.718151
vt 0.437500 0.746416
vt 0.406250 0.718151
vt 0.406250 0.746416
vt 0.375000 0.718151
vt 0.375000 0.746416
vt 0.343750 0.718151
vt 0.343750 0.746416
vt 0.312500 0.718151
vt 0.312500 0.746416
vt 0.281250 0.718151
vt 0.281250 0.746416
vt 0.250000 0.718151
vt 0.250000 0.746416
vt 0.218750 0.718151
vt 0.218750 0.746416
vt 0.187500 0.718151
vt 0.187500 0.746416
vt 0.156250 0.718151
vt 0.156250 0.746416
vt 0.125000 0.718151
vt 0.125000 0.746416
vt 0.093750 0.746416
vt 0.093750 0.718151
vt 0.062500 0.718151
vt 0.062500 0.746416
vt 0.031250 0.746416
vt 0.031250 0.718151
vt 0.015799 0.750791
vt 0.015799 0.746377
vt 0.000030 0.717447
vt 0.000030 0.746337
vt 0.014723 0.746374
vt 0.014723 0.748415
vt 0.015145 0.748415
vt 0.015145 0.750792
vt 0.500000 1.000000
vt 0.468750 1.000000
vt 0.468750 0.500000
vt 0.437500 1.000000
vt 0.437500 0.500000
vt 0.406250 1.000000
vt 0.406250 0.500000
vt 0.375000 1.000000
vt 0.343750 1.000000
vt 0.343750 0.500000
vt 0.312500 1.000000
vt 0.312500 0.500000
vt 0.281250 1.000000
vt 0.281250 0.500000
vt 0.250000 1.000000
vt 0.250000 0.500000
vt 0.218750 1.000000
vt 0.218750 0.500000
vt 0.187500 1.000000
vt 0.187500 0.500000
vt 0.156250 1.000000
vt 0.156250 0.500000
vt 0.125000 1.000000
vt 0.093750 1.000000
vt 0.093750 0.500000
vt 0.062500 1.000000
vt 0.062500 0.500000
vt 0.031250 0.500000
vt 0.000000 0.500000
vt 0.016897 0.500000
vt 0.048282 0.500000
vt 0.070030 0.500000
vt 0.099495 0.500000
vt 0.129646 0.500000
vt 0.159792 0.500000
vt 0.189886 0.500000
vt 0.219949 0.500000
vt 0.250000 0.500000
vt 0.280051 0.500000
vt 0.310114 0.500000
vt 0.340208 0.500000
vt 0.370354 0.500000
vt 0.400506 0.500000
vt 0.429971 0.500000
vt 0.451719 0.500000
vt 0.483103 0.500000
vt 0.031250 1.000000
vt 0.000000 1.000000
vt 0.016897 1.000000
vt 0.483103 1.000000
vt 0.451718 1.000000
vt 0.429970 1.000000
vt 0.400505 1.000000
vt 0.370354 1.000000
vt 0.340208 1.000000
vt 0.310114 1.000000
vt 0.280051 1.000000
vt 0.250000 1.000000
vt 0.219949 1.000000
vt 0.189886 1.000000
vt 0.159792 1.000000
vt 0.129646 1.000000
vt 0.099494 1.000000
vt 0.070029 1.000000
vt 0.048281 1.000000
vt 0.016897 1.000000
vt 0.016897 0.500000
vt 0.468750 0.743815
vt 0.468750 0.756189
vt 0.498152 0.756184
vt 0.498152 0.743816
vt 0.437500 0.743813
vt 0.437500 0.756189
vt 0.406250 0.743812
vt 0.406250 0.756189
vt 0.375000 0.743811
vt 0.375000 0.756189
vt 0.343750 0.743810
vt 0.343750 0.756190
vt 0.312500 0.743810
vt 0.312500 0.756191
vt 0.281250 0.743810
vt 0.281250 0.756190
vt 0.250000 0.743811
vt 0.250000 0.756189
vt 0.218750 0.743810
vt 0.218750 0.756190
vt 0.187500 0.743810
vt 0.187500 0.756190
vt 0.156250 0.743810
vt 0.156250 0.756190
vt 0.125000 0.743811
vt 0.125000 0.756189
vt 0.093750 0.743811
vt 0.093750 0.756188
vt 0.062500 0.743811
vt 0.062500 0.756187
vt 0.031250 0.743812
vt 0.031250 0.756185
vt 0.001847 0.756184
vt 0.001847 0.743816
s 0
usemtl Material.001
f 42/1/1 19/2/1 11/2/1 3/3/1 23/3/1
f 15/4/2 8/5/2 34/5/2 27/4/2
f 21/6/3 13/6/3 16/7/3 25/7/3 38/8/3
f 53/9/3 18/10/3 26/10/3 40/11/3 54/9/3
f 26/10/3 18/10/3 11/2/3 19/2/3 39/12/3
f 14/13/2 2/14/2 32/14/2 22/13/2
f 1/15/4 12/16/4 20/16/4 30/15/4
f 56/17/5 42/1/5 46/1/5 58/18/5
f 45/19/5 37/19/5 55/20/5 57/20/5
f 29/21/6 30/15/6 20/16/6 19/2/6
f 32/14/6 31/22/6 21/6/6 22/13/6
f 34/5/6 33/23/6 26/10/6 27/4/6
f 35/24/6 36/25/6 28/26/6 25/7/6
f 7/25/4 17/26/4 28/26/4 36/25/4
f 5/21/7 1/15/7 30/15/7 29/21/7
f 12/16/1 11/2/1 19/2/1 20/16/1
f 2/14/1 6/22/1 31/22/1 32/14/1
f 13/6/7 14/13/7 22/13/7 21/6/7
f 41/27/3 25/7/3 16/7/3 59/28/3 60/28/3
f 18/10/7 15/4/7 27/4/7 26/10/7
f 62/29/8 44/3/8 23/3/8 3/3/8 64/29/8
f 63/30/8 4/31/8 24/31/8 43/31/8 61/32/8
f 17/26/1 16/7/1 25/7/1 28/26/1
f 8/5/1 9/23/1 33/23/1 34/5/1
f 42/1/1 23/3/1 44/3/1 46/1/1
f 24/31/7 4/31/7 13/6/7 21/6/7 37/19/7
f 10/24/7 7/25/7 36/25/7 35/24/7
f 46/1/6 44/3/6 62/29/6 58/18/6
f 61/32/6 43/31/6 45/19/6 57/20/6
f 40/11/6 26/10/6 39/12/6 19/2/6 42/1/6 56/17/6 54/9/6
f 37/19/6 21/6/6 38/8/6 25/7/6 41/27/6 60/28/6 55/20/6
f 24/31/7 37/19/7 45/19/7 43/31/7
f 60/79/10 59/80/10 66/81/10 82/82/10 87/83/10 67/84/10 63/85/10 61/86/10 57/87/10 55/88/10
f 88/89/11 68/90/11 67/84/11 87/83/11
f 89/91/12 69/92/12 68/90/12 88/89/12
f 91/93/13 70/94/13 69/92/13 89/91/13
f 90/95/14 71/96/14 70/94/14 91/93/14
f 92/97/15 77/98/15 71/96/15 90/95/15
f 98/99/16 76/100/16 77/98/16 92/97/16
f 97/101/17 75/102/17 76/100/17 98/99/17
f 96/103/18 74/104/18 75/102/18 97/101/18
f 95/105/19 73/106/19 74/104/19 96/103/19
f 93/107/20 72/108/20 73/106/20 95/105/20
f 94/109/21 78/110/21 72/108/21 93/107/21
f 81/111/22 78/110/22 94/109/22 84/112/22
f 86/113/23 79/114/23 81/111/23 84/112/23
f 80/115/24 79/114/24 86/113/24 85/116/24
f 62/117/25 64/118/25 80/115/25 85/116/25 83/119/25 65/120/25 53/121/25 54/122/25 56/123/25 58/124/25
f 101/3/26 102/125/26 104/126/26 103/127/26
f 103/127/27 104/126/27 106/128/27 105/129/27
f 105/129/28 106/128/28 108/130/28 107/131/28
f 107/131/29 108/130/29 110/132/29 109/16/29
f 109/16/30 110/132/30 112/133/30 111/134/30
f 111/134/31 112/133/31 114/135/31 113/136/31
f 113/136/32 114/135/32 116/137/32 115/138/32
f 115/138/33 116/137/33 118/139/33 117/140/33
f 117/140/34 118/139/34 120/141/34 119/142/34
f 119/142/35 120/141/35 122/143/35 121/144/35
f 121/144/36 122/143/36 124/145/36 123/146/36
f 123/146/37 124/145/37 126/147/37 125/57/37
f 125/57/38 126/147/38 128/148/38 127/149/38
f 127/149/39 128/148/39 130/150/39 129/151/39
f 101/3/40 103/127/40 105/129/40 107/131/40 109/16/40 111/134/40 113/136/40 115/138/40 117/140/40 119/142/40 121/144/40 123/146/40 125/57/40 127/149/40 129/151/40 131/152/40 99/153/40 134/154/40 135/155/40 140/156/40 139/157/40 149/158/40 148/159/40 146/160/40 147/161/40 145/162/40 142/163/40 141/164/40 144/165/40 143/166/40 136/167/40 138/168/40 137/169/40 133/170/40
f 129/151/41 130/150/41 132/171/41 131/152/41
f 131/152/42 132/171/42 100/172/42 99/153/42
f 151/173/43 100/172/43 132/171/43 130/150/43 128/148/43 126/147/43 124/145/43 122/143/43 120/141/43 118/139/43 116/137/43 114/135/43 112/133/43 110/132/43 108/130/43 106/128/43 104/126/43 102/125/43 150/174/43 152/175/43 157/176/43 156/177/43 165/178/43 166/179/43 163/180/43 164/181/43 162/182/43 159/183/43 158/184/43 160/185/43 161/186/43 153/187/43 155/188/43 154/189/43
f 102/125/3 101/3/3 133/170/3 150/174/3
f 99/153/3 100/172/3 151/190/3 134/191/3
f 137/192/44 152/193/44 150/194/44 133/195/44
f 137/192/11 138/196/11 157/197/11 152/193/11
f 138/196/12 136/198/12 156/199/12 157/197/12
f 156/199/13 136/198/13 143/200/13 165/201/13
f 165/201/14 143/200/14 144/202/14 166/203/14
f 166/203/15 144/202/15 141/204/15 163/205/15
f 163/205/16 141/204/16 142/206/16 164/207/16
f 164/207/17 142/206/17 145/208/17 162/209/17
f 162/209/18 145/208/18 147/210/18 159/211/18
f 159/211/19 147/210/19 146/212/19 158/213/19
f 158/213/20 146/212/20 148/214/20 160/215/20
f 160/215/21 148/214/21 149/216/21 161/217/21
f 161/217/22 149/216/22 139/218/22 153/219/22
f 153/219/23 139/218/23 140/220/23 155/221/23
f 155/221/24 140/220/24 135/222/24 154/223/24
f 151/224/45 154/223/45 135/222/45 134/225/45
usemtl Material.003
f 7/25/6 10/24/6 6/22/6 2/14/6
f 1/15/6 5/21/6 9/23/6 8/5/6
f 65/33/6 15/4/6 18/10/6 53/9/6
f 59/28/6 16/7/6 17/26/6 66/34/6
usemtl Material
f 49/35/1 47/36/1 3/3/1 11/2/1 12/16/1 50/37/1
f 80/38/6 64/29/6 3/3/6 47/36/6 48/39/6 4/31/6 63/30/6 67/40/6 68/41/6 69/42/6 70/43/6 71/44/6 77/45/6 76/46/6 75/47/6 74/48/6 73/49/6 72/50/6 78/51/6 81/52/6 79/53/6
f 17/26/3 14/13/3 52/54/3 82/55/3 66/34/3
f 83/56/3 50/57/3 12/16/3 15/4/3 65/33/3
f 49/58/8 51/59/8 48/39/8 47/36/8
f 82/60/9 52/61/9 51/62/9 49/35/9 50/37/9 83/63/9 85/64/9 86/65/9 84/66/9 94/67/9 93/68/9 95/69/9 96/70/9 97/71/9 98/72/9 92/73/9 90/74/9 91/75/9 89/76/9 88/77/9 87/78/9
f 51/62/7 52/54/7 14/13/7 4/31/7 48/39/7
