# Blender 5.1.1
# www.blender.org
mtllib Door.mtl
o Cylinder.002
v 1.711960 0.530879 -2.313829
v 1.425680 0.526120 -2.313829
v 1.715038 6.349641 -0.203589
v 1.422602 6.349642 -0.203589
v 1.715024 6.339764 -0.474818
v 1.422616 6.339765 -0.474818
v 1.715024 6.288609 -0.930491
v 1.422616 6.288609 -0.930490
v 1.715024 6.206230 -1.346927
v 1.422616 6.206230 -1.346927
v 1.715027 6.096955 -1.706705
v 1.422613 6.096955 -1.706705
v 1.715031 5.966763 -1.995401
v 1.422609 5.966763 -1.995401
v 1.715040 5.822854 -2.203238
v 1.422600 5.822854 -2.203238
v 1.715056 5.680444 -2.319953
v 1.422584 5.680444 -2.319953
v 1.425648 0.526100 -0.203588
v 1.711991 0.530859 -0.203588
v 1.715085 6.472867 -0.090901
v 1.715085 6.454557 -0.557941
v 1.422556 6.454558 -0.557941
v 1.422556 6.472868 -0.090901
v 1.715085 6.400331 -1.007033
v 1.422556 6.400331 -1.007033
v 1.715085 6.312273 -1.420919
v 1.422556 6.312273 -1.420919
v 1.715085 6.193767 -1.783692
v 1.422556 6.193767 -1.783692
v 1.715085 6.049366 -2.081413
v 1.422556 6.049366 -2.081413
v 1.715085 5.884620 -2.302640
v 1.422556 5.884620 -2.302640
v 1.715085 5.705861 -2.438870
v 1.422556 5.705861 -2.438870
v 1.711917 0.036835 -2.433029
v 1.425723 0.036835 -2.433029
v 1.425723 0.036835 -0.090901
v 1.711917 0.036835 -0.090901
v 1.423949 3.243922 -2.317254
v 1.424129 3.243923 -0.203588
v 1.713694 3.248526 -2.317259
v 1.713513 3.248526 -0.203589
v 1.423949 3.037990 -2.317255
v 1.424888 3.037990 -0.203588
v 1.713694 3.042597 -2.317259
v 1.713513 3.042598 -0.203589
v 1.498111 6.339765 -0.474818
v 1.498097 6.349642 -0.203589
v 1.498111 6.288609 -0.930490
v 1.498111 6.206230 -1.346927
v 1.498108 6.096955 -1.706705
v 1.498103 5.966763 -1.995401
v 1.498095 5.822854 -2.203238
v 1.498079 5.680444 -2.319953
v 1.499443 3.243922 -2.317254
v 1.501174 0.526120 -2.313829
v 1.501143 0.526100 -0.203588
v 1.499624 3.243923 -0.203588
v 1.499443 3.037990 -2.317255
v 1.500383 3.037990 -0.203588
v 1.616421 6.349641 -0.203589
v 1.616408 6.339764 -0.474818
v 1.616407 6.288609 -0.930491
v 1.616408 6.206230 -1.346927
v 1.616410 6.096955 -1.706705
v 1.616415 5.966763 -1.995401
v 1.616423 5.822854 -2.203238
v 1.616439 5.680444 -2.319953
v 1.613343 0.152370 -2.313829
v 1.613375 0.152350 -0.203588
v 1.615077 3.248526 -2.317259
v 1.614897 3.248526 -0.203589
v 1.614897 3.042598 -0.203589
v 1.615077 3.042597 -2.317259
v 1.648076 3.248543 -2.317260
v 1.646342 0.530896 -2.313830
v 1.646373 0.530877 -0.203589
v 1.647895 3.248544 -0.203590
vn -0.0000 0.9992 -0.0392
vn -0.0000 0.9928 -0.1199
vn -0.0000 0.9781 -0.2081
vn -0.0000 0.9506 -0.3105
vn -0.0000 0.8998 -0.4364
vn -0.0000 0.8020 -0.5973
vn -0.0000 0.0013 1.0000
vn -0.0000 0.6061 -0.7954
vn -0.0000 -0.0010 -1.0000
vn -0.0000 -1.0000 -0.0000
vn -0.0000 -0.0000 1.0000
vn 1.0000 -0.0004 -0.0000
vn -1.0000 -0.0004 -0.0000
vn 1.0000 -0.0005 0.0001
vn -1.0000 -0.0005 0.0001
vn 1.0000 -0.0005 0.0002
vn -1.0000 -0.0005 0.0002
vn 1.0000 -0.0004 0.0002
vn -1.0000 -0.0004 0.0002
vn 1.0000 -0.0003 0.0003
vn -1.0000 -0.0003 0.0003
vn 1.0000 -0.0002 0.0003
vn -1.0000 -0.0002 0.0003
vn 1.0000 -0.0006 0.0007
vn -1.0000 -0.0006 0.0007
vn -1.0000 -0.0001 -0.0000
vn 1.0000 -0.0001 -0.0000
vn 1.0000 -0.0005 -0.0003
vn -1.0000 -0.0005 -0.0016
vn -0.0000 -0.9993 0.0364
vn -0.0000 -0.6339 0.7734
vn 1.0000 0.0018 -0.0003
vn 1.0000 -0.0000 0.0001
vn -0.0000 -0.9810 0.1941
vn -0.0000 1.0000 -0.0000
vn 1.0000 0.0005 -0.0002
vn -0.0000 -0.9116 0.4111
vn -0.0000 -0.9938 0.1116
vn -0.0000 -0.0000 -1.0000
vn -0.0000 -0.8222 0.5693
vn -0.0000 -0.0014 -1.0000
vn -0.0000 -0.9568 0.2906
vn -0.0000 0.0011 1.0000
vn 1.0000 -0.0006 -0.0000
vn -0.0024 0.0013 1.0000
vn -0.9677 0.2521 -0.0000
vn -0.0000 -0.8221 0.5693
vn 0.0003 1.0000 -0.0000
vn -0.0003 -1.0000 -0.0000
vt 0.250000 0.500000
vt 0.250000 1.000000
vt 0.218750 1.000000
vt 0.218750 0.500000
vt 0.187500 1.000000
vt 0.187500 0.500000
vt 0.156250 1.000000
vt 0.156250 0.500000
vt 0.125000 1.000000
vt 0.125000 0.500000
vt 0.093750 1.000000
vt 0.093750 0.500000
vt 0.062500 1.000000
vt 0.062500 0.500000
vt 0.039413 0.500000
vt 0.020769 0.500000
vt 0.031250 1.000000
vt 0.031250 0.500000
vt 0.000000 1.000000
vt 0.000000 0.500000
vt 0.247190 1.000000
vt 0.218495 0.500000
vt 0.236015 0.500000
vt 0.236015 1.000000
vt 0.218496 1.000000
vt 0.188396 0.500000
vt 0.188396 1.000000
vt 0.158651 0.500000
vt 0.158651 1.000000
vt 0.129407 0.500000
vt 0.129407 1.000000
vt 0.101020 0.500000
vt 0.101020 1.000000
vt 0.074291 0.500000
vt 0.074291 1.000000
vt 0.054058 0.500000
vt 0.054058 1.000000
vt 0.039386 1.000000
vt 0.020769 1.000000
vt 0.247236 1.000000
vt 0.229917 0.500000
vt 0.232964 0.500000
vt 0.229917 1.000000
vt 0.231438 1.000000
vt 0.232959 1.000000
vt 0.000000 0.000000
s 0
usemtl Material.001
f 21/1/1 22/4/1 23/3/1 24/2/1
f 22/4/2 25/6/2 26/5/2 23/3/2
f 25/6/3 27/8/3 28/7/3 26/5/3
f 27/8/4 29/10/4 30/9/4 28/7/4
f 29/10/5 31/12/5 32/11/5 30/9/5
f 31/12/6 33/14/6 34/13/6 32/11/6
f 43/15/7 77/15/7 78/16/7 1/16/7
f 33/14/8 35/18/8 36/17/8 34/13/8
f 35/18/9 37/20/9 38/19/9 36/17/9
f 37/20/10 40/1/10 39/21/10 38/19/10
f 21/1/11 24/2/11 39/2/11 40/1/11
f 5/22/12 22/4/12 21/1/12 3/23/12
f 4/24/13 24/2/13 23/3/13 6/25/13
f 7/26/14 25/6/14 22/4/14 5/22/14
f 6/25/15 23/3/15 26/5/15 8/27/15
f 9/28/14 27/8/14 25/6/14 7/26/14
f 8/27/15 26/5/15 28/7/15 10/29/15
f 11/30/16 29/10/16 27/8/16 9/28/16
f 10/29/17 28/7/17 30/9/17 12/31/17
f 13/32/18 31/12/18 29/10/18 11/30/18
f 12/31/19 30/9/19 32/11/19 14/33/19
f 15/34/20 33/14/20 31/12/20 13/32/20
f 14/33/21 32/11/21 34/13/21 16/35/21
f 17/36/22 35/18/22 33/14/22 15/34/22
f 16/35/23 34/13/23 36/17/23 18/37/23
f 1/16/24 37/20/24 35/18/24 17/36/24 43/15/24
f 18/37/25 36/17/25 38/19/25 2/39/25 41/38/25
f 2/39/26 38/19/26 39/21/26 19/40/26
f 20/41/27 40/1/27 37/20/27 1/16/27
f 3/23/28 21/1/28 40/1/28 20/41/28 44/42/28
f 19/43/29 39/2/29 24/2/29 4/24/29 42/45/29 46/44/29
f 6/25/30 49/25/30 50/24/30 4/24/30
f 15/34/31 69/34/31 70/36/31 17/36/31
f 45/46/32 41/38/32 42/45/32 46/46/32
f 43/15/33 44/42/33 48/46/33 47/46/33
f 7/26/34 65/26/34 66/28/34 9/28/34
f 46/46/35 62/46/35 61/46/35 45/46/35
f 62/46/36 59/46/36 58/46/36 61/46/36
f 49/25/15 51/27/15 52/29/15 53/31/15 54/33/15 55/35/15 56/37/15 57/38/15 60/45/15 50/24/15
f 2/39/10 58/39/10 59/40/10 19/40/10
f 14/33/37 54/33/37 53/31/37 12/31/37
f 19/43/11 59/43/11 62/44/11 46/44/11
f 42/45/35 60/45/35 57/38/35 41/38/35
f 8/27/38 51/27/38 49/25/38 6/25/38
f 4/24/39 50/24/39 60/45/39 42/45/39
f 16/35/40 55/35/40 54/33/40 14/33/40
f 45/46/41 61/46/41 58/46/41 2/46/41
f 10/29/34 52/29/34 51/27/34 8/27/34
f 18/37/31 56/37/31 55/35/31 16/35/31
f 12/31/42 53/31/42 52/29/42 10/29/42
f 41/38/43 57/38/43 56/37/43 18/37/43
f 73/15/14 70/36/14 69/34/14 68/32/14 67/30/14 66/28/14 65/26/14 64/22/14 63/23/14 74/42/14
f 75/46/44 72/41/44 71/16/44 76/46/44
f 17/36/43 70/36/43 73/15/43 43/15/43
f 9/28/42 66/28/42 67/30/42 11/30/42
f 44/42/39 74/42/39 63/23/39 3/23/39
f 43/15/35 73/15/35 74/42/35 44/42/35
f 3/23/30 63/23/30 64/22/30 5/22/30
f 47/46/45 76/46/45 71/46/45 1/46/45
f 11/30/37 67/30/37 68/32/37 13/32/37
f 20/46/39 72/46/39 75/46/39 48/46/39
f 48/46/10 75/46/10 76/46/10 47/46/10
f 5/22/38 64/22/38 65/26/38 7/26/38
f 1/16/46 71/16/46 72/41/46 20/41/46
f 13/32/47 68/32/47 69/34/47 15/34/47
f 78/16/44 77/15/44 80/42/44 79/41/44
f 1/16/48 78/16/48 79/41/48 20/41/48
f 44/42/49 80/42/49 77/15/49 43/15/49
f 20/41/39 79/41/39 80/42/39 44/42/39
