# Blender 5.1.1
# www.blender.org
mtllib Full Wall.mtl
o Cube.002
v 1.707013 0.008697 5.400745
v 1.707013 0.008697 13.365557
v 1.707013 2.939106 5.333723
v 1.707013 2.939106 13.432579
v 1.707013 2.735750 5.400745
v 1.707013 2.735750 13.365557
v 1.707013 0.008697 12.599748
v 1.707013 0.008697 11.565830
v 1.707013 0.008697 10.800002
v 1.707013 0.008697 9.766084
v 1.707013 0.008697 9.000256
v 1.707013 0.008697 7.966338
v 1.707013 0.008697 7.200510
v 1.707013 0.008697 6.166592
v 1.707013 2.735750 6.166592
v 1.707013 2.735750 7.200510
v 1.707013 2.735750 7.966338
v 1.707013 2.735750 9.000256
v 1.707013 2.735750 9.766084
v 1.707013 2.735750 10.800002
v 1.707013 2.735750 11.565830
v 1.707013 2.735750 12.599748
v 1.707013 2.738953 5.333723
v 1.707013 0.005494 5.333723
v 1.707013 2.738953 13.432579
v 1.707013 0.005494 13.432579
v 1.707013 0.005494 6.233615
v 1.707013 2.738953 12.532725
v 1.707013 0.005494 12.532725
v 1.707013 0.005494 11.632853
v 1.707013 0.005494 10.732980
v 1.707013 0.005494 9.833106
v 1.707013 0.005494 8.933233
v 1.707013 0.005494 8.033360
v 1.707013 0.005494 7.133488
v 1.707013 2.738953 6.233615
v 1.707013 2.738953 7.133488
v 1.707013 2.738953 8.033360
v 1.707013 2.738953 8.933233
v 1.707013 2.738953 9.833106
v 1.707013 2.738953 10.732980
v 1.707013 2.738953 11.632853
v 1.751225 2.738953 5.333723
v 1.751225 0.005494 5.333723
v 1.751225 2.738953 13.432579
v 1.751225 0.005494 13.432579
v 1.751225 2.939106 5.333723
v 1.751225 2.939106 13.432579
v 1.751225 2.738953 12.532725
v 1.751225 2.738953 6.233615
v 1.751225 2.738953 7.133488
v 1.751225 2.738953 8.033360
v 1.751225 2.738953 8.933233
v 1.751225 2.738953 9.833106
v 1.751225 2.738953 10.732980
v 1.751225 2.738953 11.632853
v 1.751225 0.005494 6.233615
v 1.751225 0.005494 7.133488
v 1.751225 0.005494 8.033360
v 1.751225 0.005494 8.933233
v 1.751225 0.005494 9.833106
v 1.751225 0.005494 10.732980
v 1.751225 0.005494 11.632853
v 1.751225 0.005494 12.532725
v 1.751225 2.735750 5.400745
v 1.751225 0.008697 5.400745
v 1.751225 2.735750 13.365557
v 1.751225 0.008697 13.365557
v 1.751225 2.735750 6.166592
v 1.751225 0.008697 6.166592
v 1.751225 2.735750 7.200510
v 1.751225 0.008697 7.200510
v 1.751225 2.735750 7.966338
v 1.751225 0.008697 7.966338
v 1.751225 2.735750 9.000256
v 1.751225 0.008697 9.000256
v 1.751225 2.735750 9.766084
v 1.751225 0.008697 9.766084
v 1.751225 2.735750 10.800002
v 1.751225 0.008697 10.800002
v 1.751225 2.735750 11.565830
v 1.751225 0.008697 11.565830
v 1.751225 2.735750 12.599748
v 1.751225 0.008697 12.599748
v 1.751225 2.839030 13.432579
v 1.751225 2.738953 12.982653
v 1.751225 2.738953 5.783669
v 1.751225 2.738953 6.683551
v 1.751225 2.738953 7.583424
v 1.751225 2.738953 8.483297
v 1.751225 2.738953 9.383170
v 1.751225 2.738953 10.283043
v 1.751225 2.738953 11.182916
v 1.751225 2.738953 12.082788
v 1.751225 2.812571 5.333723
v 1.802732 2.939106 13.432579
v 1.802732 2.939106 5.333723
v 1.802732 2.839030 13.432579
v 1.802732 2.812571 5.333723
v 1.707013 0.008697 5.400745
v 1.707013 0.008697 13.365557
v 1.707013 2.735750 5.400745
v 1.707013 2.735750 13.365557
v 1.707013 0.008697 12.599748
v 1.707013 0.008697 11.565830
v 1.707013 0.008697 10.800002
v 1.707013 0.008697 9.766084
v 1.707013 0.008697 9.000256
v 1.707013 0.008697 7.966338
v 1.707013 0.008697 7.200510
v 1.707013 0.008697 6.166592
v 1.707013 2.735750 6.166592
v 1.707013 2.735750 7.200510
v 1.707013 2.735750 7.966338
v 1.707013 2.735750 9.000256
v 1.707013 2.735750 9.766084
v 1.707013 2.735750 10.800002
v 1.707013 2.735750 11.565830
v 1.707013 2.735750 12.599748
v 1.707013 0.005494 6.233615
v 1.707013 2.738953 12.532725
v 1.707013 0.005494 12.532725
v 1.707013 0.005494 11.632853
v 1.707013 0.005494 10.732980
v 1.707013 0.005494 9.833106
v 1.707013 0.005494 8.933233
v 1.707013 0.005494 8.033360
v 1.707013 0.005494 7.133488
v 1.707013 2.738953 6.233615
v 1.707013 2.738953 7.133488
v 1.707013 2.738953 8.033360
v 1.707013 2.738953 8.933233
v 1.707013 2.738953 9.833106
v 1.707013 2.738953 10.732980
v 1.707013 2.738953 11.632853
v 1.707013 8.104350 5.333723
v 1.707013 8.104350 13.432579
v 1.087466 8.104350 5.333723
v 1.087466 0.005494 5.333723
v 1.087466 8.104350 13.432579
v 1.087466 0.005494 13.432579
v 1.707013 2.939106 5.333723
v 1.707013 2.939106 13.432579
v 1.707013 0.008697 11.565830
v 1.707013 0.008697 10.800002
v 1.707013 0.008697 9.766084
v 1.707013 0.008697 9.000256
v 1.707013 0.008697 7.966338
v 1.707013 0.008697 7.200510
v 1.707013 2.738953 5.333723
v 1.707013 0.005494 5.333723
v 1.707013 0.005494 13.432579
v 1.707013 0.005494 6.233615
v 1.707013 0.005494 12.532725
v 1.707013 0.005494 11.632853
v 1.707013 0.005494 10.732980
v 1.707013 0.005494 9.833106
v 1.707013 0.005494 8.933233
v 1.707013 0.005494 8.033360
v 1.707013 0.005494 7.133488
vn -0.0000 -0.0000 -1.0000
vn -0.0000 -1.0000 -0.0000
vn 1.0000 -0.0000 -0.0000
vn -0.0000 -0.9989 -0.0477
vn -0.0000 -0.9989 0.0477
vn -0.0000 -1.0000 0.0033
vn -0.0000 -0.0000 1.0000
vn -0.0000 1.0000 -0.0000
vn -0.0000 0.9989 -0.0477
vn -0.0000 0.9989 0.0477
vn -1.0000 -0.0000 -0.0000
vt 0.500000 0.500000
vt 0.494608 0.500000
vt 0.491472 0.500000
vt 0.491472 0.611112
vt 0.491472 0.583334
vt 0.491472 0.597223
vt 0.491472 0.555556
vt 0.491472 0.569445
vt 0.488616 0.581265
vt 0.488616 0.557625
vt 0.375000 0.527778
vt 0.377856 0.525709
vt 0.491472 0.750000
vt 0.491472 0.722223
vt 0.491472 0.736111
vt 0.491472 0.527778
vt 0.491472 0.541667
vt 0.491472 0.513889
vt 0.375000 0.750000
vt 0.377856 0.747931
vt 0.377856 0.502069
vt 0.375000 0.500000
vt 0.495736 0.750000
vt 0.488616 0.502069
vt 0.488616 0.747931
vt 0.488616 0.525709
vt 0.377856 0.557625
vt 0.375000 0.555556
vt 0.377856 0.581265
vt 0.375000 0.583334
vt 0.488616 0.613181
vt 0.377856 0.613181
vt 0.375000 0.611112
vt 0.377856 0.636821
vt 0.488616 0.636821
vt 0.491472 0.638889
vt 0.375000 0.638889
vt 0.488616 0.668736
vt 0.377856 0.668736
vt 0.375000 0.666667
vt 0.491472 0.666667
vt 0.377856 0.692376
vt 0.488616 0.692376
vt 0.491472 0.694445
vt 0.375000 0.694445
vt 0.488616 0.724292
vt 0.377856 0.724292
vt 0.375000 0.722223
vt 0.491472 0.625001
vt 0.491472 0.652778
vt 0.491472 0.680556
vt 0.491472 0.708334
vt 0.500000 0.750000
vt 0.375000 0.250000
vt 0.625000 0.250000
vt 0.625000 0.500000
vt 0.625000 0.750000
vt 0.125000 0.750000
vt 0.125000 0.500000
vt 0.875000 0.500000
vt 0.875000 0.750000
vt 0.375000 0.000000
vt 0.625000 0.000000
s 0
usemtl Material.001
f 3/1/1 47/1/1 95/2/1 43/3/1 23/3/1
f 39/4/2 38/5/2 52/5/2 90/6/2 53/4/2
f 38/5/2 37/7/2 51/7/2 89/8/2 52/5/2
f 17/9/3 16/10/3 37/7/3 38/5/3
f 27/11/4 14/12/4 70/12/4 57/11/4
f 25/13/2 28/14/2 49/14/2 86/15/2 45/13/2
f 37/7/2 36/16/2 50/16/2 88/17/2 51/7/2
f 36/16/2 23/3/2 43/3/2 87/18/2 50/16/2
f 26/19/4 2/20/4 68/20/4 46/19/4
f 1/21/5 24/22/5 44/22/5 66/21/5
f 85/23/6 95/2/6 99/2/6 98/23/6
f 65/24/3 66/21/3 44/22/3 43/3/3
f 68/20/3 67/25/3 45/13/3 46/19/3
f 70/12/3 69/26/3 50/16/3 57/11/3
f 71/10/3 72/27/3 58/28/3 51/7/3
f 74/29/3 73/9/3 52/5/3 59/30/3
f 75/31/3 76/32/3 60/33/3 53/4/3
f 78/34/3 77/35/3 54/36/3 61/37/3
f 79/38/3 80/39/3 62/40/3 55/41/3
f 82/42/3 81/43/3 56/44/3 63/45/3
f 83/46/3 84/47/3 64/48/3 49/14/3
f 7/47/5 29/48/5 64/48/5 84/47/5
f 5/24/7 1/21/7 66/21/7 65/24/7
f 40/36/2 39/4/2 53/4/2 91/49/2 54/36/2
f 9/39/5 31/40/5 62/40/5 80/39/5
f 24/22/1 23/3/1 43/3/1 44/22/1
f 2/20/1 6/25/1 67/25/1 68/20/1
f 41/41/2 40/36/2 54/36/2 92/50/2 55/41/2
f 30/45/4 8/42/4 82/42/4 63/45/4
f 42/44/2 41/41/2 55/41/2 93/51/2 56/44/2
f 11/32/5 33/33/5 60/33/5 76/32/5
f 25/13/7 26/19/7 46/19/7 45/13/7
f 28/14/2 42/44/2 56/44/2 94/52/2 49/14/2
f 32/37/4 10/34/4 78/34/4 61/37/4
f 36/16/7 27/11/7 57/11/7 50/16/7
f 13/27/5 35/28/5 58/28/5 72/27/5
f 35/28/1 37/7/1 51/7/1 58/28/1
f 96/53/8 97/1/8 47/1/8 3/1/8 4/53/8 48/53/8
f 34/30/4 12/29/4 74/29/4 59/30/4
f 38/5/7 34/30/7 59/30/7 52/5/7
f 33/33/1 39/4/1 53/4/1 60/33/1
f 17/9/9 38/5/9 52/5/9 73/9/9
f 40/36/7 32/37/7 61/37/7 54/36/7
f 37/7/10 16/10/10 71/10/10 51/7/10
f 31/40/1 41/41/1 55/41/1 62/40/1
f 42/44/7 30/45/7 63/45/7 56/44/7
f 29/48/1 28/14/1 49/14/1 64/48/1
f 14/12/1 15/26/1 69/26/1 70/12/1
f 16/10/7 13/27/7 72/27/7 71/10/7
f 12/29/1 17/9/1 73/9/1 74/29/1
f 18/31/7 11/32/7 76/32/7 75/31/7
f 10/34/1 19/35/1 77/35/1 78/34/1
f 20/38/7 9/39/7 80/39/7 79/38/7
f 95/2/1 47/1/1 97/1/1 99/2/1
f 8/42/1 21/43/1 81/43/1 82/42/1
f 4/53/7 25/13/7 45/13/7 85/23/7 48/53/7
f 22/46/7 7/47/7 84/47/7 83/46/7
f 97/1/3 96/53/3 98/23/3 99/2/3
f 95/2/3 85/23/3 45/13/3 86/15/3 49/14/3 94/52/3 56/44/3 93/51/3 55/41/3 92/50/3 54/36/3 91/49/3 53/4/3 90/6/3 52/5/3 89/8/3 51/7/3 88/17/3 50/16/3 87/18/3 43/3/3
f 48/53/7 85/23/7 98/23/7 96/53/7
usemtl Material.003
f 104/47/3 119/46/3 103/25/3 101/20/3
f 100/21/3 102/24/3 112/26/3 111/12/3
f 120/11/3 129/16/3 130/7/3 128/28/3
f 110/27/3 113/10/3 114/9/3 109/29/3
f 127/30/3 131/5/3 132/4/3 126/33/3
f 108/32/3 115/31/3 116/35/3 107/34/3
f 125/37/3 133/36/3 134/41/3 124/40/3
f 106/39/3 117/38/3 118/43/3 105/42/3
f 123/45/3 135/44/3 121/14/3 122/48/3
usemtl Material
f 139/54/1 138/55/1 136/56/1 142/1/1 150/3/1 151/22/1
f 136/56/3 137/57/3 143/53/3 142/1/3
f 153/11/2 160/28/2 159/30/2 158/33/2 157/37/2 156/40/2 155/45/2 154/48/2 152/19/2 141/58/2 139/59/2 151/22/2
f 138/60/8 140/61/8 137/57/8 136/56/8
f 145/39/3 144/42/3 155/45/3 156/40/3
f 147/32/3 146/34/3 157/37/3 158/33/3
f 149/27/3 148/29/3 159/30/3 160/28/3
f 138/55/11 139/54/11 141/62/11 140/63/11
f 137/57/7 140/63/7 141/58/7 152/19/7 143/53/7
